<svg width="202" height="186" viewBox="0 0 202 186" fill="none" xmlns="http://www.w3.org/2000/svg">
<path d="M165.462 99.8595L165.478 100.059L165.529 100.788L165.573 101.517L165.609 102.247L165.639 102.978L165.66 103.709L165.675 104.442L165.682 105.174L165.681 105.908L165.674 106.642L165.659 107.376L165.636 108.111L165.606 108.846L165.569 109.581L165.525 110.316L165.472 111.051L165.413 111.786L165.346 112.521L165.272 113.255L165.19 113.99L165.101 114.724L165.004 115.457L164.9 116.191L164.788 116.923L164.669 117.655L164.543 118.386L164.409 119.116L164.268 119.846L164.119 120.574L163.963 121.301L163.8 122.028L163.629 122.753L163.451 123.477L163.265 124.199L163.072 124.92L162.871 125.64L162.664 126.357L162.449 127.074L162.226 127.788L161.996 128.501L161.759 129.212L161.515 129.921L161.263 130.628L161.004 131.333L160.738 132.036L160.465 132.736L160.184 133.434L159.897 134.13L159.602 134.823L159.3 135.514L158.99 136.202L158.674 136.888L158.351 137.57L158.02 138.25L157.683 138.927L157.338 139.601L156.987 140.272L156.628 140.94L156.263 141.604L155.891 142.266L155.512 142.924L155.126 143.578L154.733 144.229L154.333 144.877L153.927 145.521L153.514 146.161L153.094 146.797L152.668 147.43L152.235 148.059L151.795 148.683L151.349 149.304L150.897 149.921L150.438 150.533L149.972 151.141L149.5 151.745L149.022 152.345L148.537 152.94L148.046 153.53L147.549 154.116L147.046 154.698L146.537 155.274L146.021 155.846L145.5 156.413L144.972 156.975L144.439 157.532L143.899 158.084L143.354 158.631L142.803 159.173L142.246 159.71L141.683 160.241L141.115 160.767L140.541 161.288L139.962 161.803L139.377 162.312L138.786 162.816L138.19 163.315L137.589 163.808L136.982 164.295L136.371 164.776L135.754 165.251L135.132 165.72L134.504 166.184L133.872 166.641L133.235 167.093L132.593 167.538L131.946 167.977L131.294 168.41L130.637 168.836L129.976 169.256L129.311 169.67L128.64 170.077L127.965 170.478L127.286 170.872L126.603 171.26L125.915 171.641L125.223 172.015L124.526 172.382L123.826 172.743L123.122 173.097L122.413 173.444L121.701 173.784L120.985 174.118L120.265 174.444L119.541 174.763L118.814 175.075L118.083 175.38L117.349 175.678L116.612 175.968L115.871 176.252L115.126 176.528L114.379 176.797L113.628 177.058L112.875 177.312L112.118 177.559L111.358 177.798L110.596 178.029L109.831 178.253L109.063 178.47L108.292 178.679L107.519 178.88L106.744 179.074L105.966 179.26L105.186 179.438L104.403 179.609L103.619 179.772L102.832 179.927L102.043 180.074L101.253 180.213L100.46 180.345L99.6661 180.468L98.8702 180.584L98.0726 180.692L97.2735 180.792L96.473 180.884L95.6711 180.968L94.8678 181.043L94.0634 181.111L93.2578 181.171L92.4512 181.223L91.6436 181.266L90.8351 181.302L90.0257 181.33L89.2157 181.349L88.405 181.36L87.5937 181.363L86.7819 181.358L85.9697 181.345L85.1572 181.324L84.3445 181.294L83.5316 181.256L82.7186 181.211L81.9056 181.157L81.0927 181.094L80.28 181.024L79.4675 180.945L78.6553 180.858L77.8436 180.763L77.0324 180.66L76.2217 180.548L75.4118 180.429L74.6025 180.301L73.7941 180.165L72.9867 180.02L72.1802 179.868L71.3748 179.707L70.5705 179.538L69.7676 179.361L68.9659 179.176L68.1657 178.983L67.3669 178.781L66.5698 178.572L65.7743 178.354L64.9805 178.128L64.1886 177.894L63.3985 177.652L62.6105 177.402L61.8246 177.144L61.0408 176.878L60.2592 176.603L59.48 176.321L58.7032 176.031L57.9288 175.733L57.1571 175.427L56.3879 175.113L55.6216 174.791L54.858 174.461L54.0973 174.123L53.3396 173.778L52.5849 173.425L51.8334 173.064L51.0851 172.695L50.34 172.318L49.5984 171.934L48.8602 171.542L48.1255 171.143L47.3944 170.736L46.6671 170.321L45.9435 169.899L45.2237 169.47L44.5079 169.032L43.796 168.588L43.0883 168.136L42.3847 167.677L41.6853 167.21L40.9902 166.736L40.2995 166.255L39.6133 165.767L38.9315 165.271L38.2544 164.769L37.582 164.259L36.9143 163.743L36.2515 163.219L35.5936 162.688L34.9406 162.151L34.2927 161.607L33.6498 161.055L33.0122 160.498L32.3798 159.933L31.7528 159.362L31.1312 158.784L30.515 158.2L29.9043 157.609L29.2993 157.011L28.6999 156.408L28.1063 155.798L27.5185 155.181L26.9366 154.559L26.3606 153.93L25.7906 153.295L25.2266 152.654L24.6689 152.007L24.1173 151.354L23.5719 150.695L23.0329 150.031L22.5003 149.36L21.9741 148.684L21.4544 148.003L20.9413 147.315L20.4348 146.623L19.9351 145.924L19.442 145.221L18.9558 144.512L18.4764 143.797L18.0039 143.078L17.5384 142.353L17.08 141.624L16.6286 140.889L16.1843 140.15L15.7473 139.405L15.3174 138.656L14.8949 137.902L14.4797 137.144L14.072 136.381L13.6716 135.613L13.2788 134.841L12.8935 134.065L12.5158 133.284L12.1457 132.499L11.7833 131.711L11.4287 130.918L11.0818 130.121L10.7427 129.32L10.4115 128.515L10.0882 127.707L9.7729 126.894L9.46554 126.079L9.1662 125.26L8.87494 124.437L8.59178 123.611L8.31676 122.782L8.04993 121.949L7.79131 121.114L7.54095 120.275L7.29888 119.433L7.06512 118.589L6.83972 117.742L6.62271 116.892L6.41412 116.039L6.21398 115.184L6.02231 114.327L5.83916 113.467L5.66454 112.605L5.49848 111.74L5.34102 110.874L5.19217 110.005L5.05196 109.135L4.92042 108.263L4.79756 107.389L4.68342 106.513L4.57801 105.636L4.48135 104.757L4.39346 103.876L4.31436 102.995L4.24407 102.112L4.18261 101.228L4.12998 100.343L4.08622 99.4567L4.05132 98.5697L4.02531 97.682L4.0082 96.7935L4 95.9044L4.00072 95.0147L4.01036 94.1246L4.02895 93.2342L4.05648 92.3434L4.09297 91.4525L4.13842 90.5615L4.19283 89.6706L4.25621 88.7797L4.32857 87.8889L4.40991 86.9985L4.50022 86.1084L4.59951 85.2188L4.70778 84.3297L4.82503 83.4413L4.95125 82.5536L5.08645 81.6667L5.23062 80.7807L5.38376 79.8957L5.54585 79.0118L5.71689 78.1291L5.89689 77.2477L6.08581 76.3676L6.28367 75.4889L6.49045 74.6118L6.70613 73.7364L6.9307 72.8627L7.16416 71.9907L7.40649 71.1207L7.65767 70.2527L7.91768 69.3868L8.18652 68.523L8.46416 67.6615L8.75059 66.8024L9.04578 65.9457L9.34972 65.0915L9.66238 64.24L9.98374 63.3912L10.3138 62.5451L10.6525 61.702L10.9998 60.8618L11.3557 60.0247L11.7203 59.1908L12.0933 58.3601L12.4749 57.5327L12.865 56.7088L13.2635 55.8884L13.6705 55.0715L14.0859 54.2583L14.5096 53.4489L14.9417 52.6434L15.382 51.8418L15.8307 51.0442L16.2875 50.2507L16.7526 49.4614L17.2258 48.6763L17.7071 47.8957L18.1965 47.1195L18.6939 46.3478L19.1993 45.5807L19.7126 44.8183L20.2339 44.0607L20.763 43.3079L21.2999 42.5601L21.8446 41.8173L22.397 41.0796L22.9571 40.3471L23.5248 39.6199L24.1001 38.898L24.6829 38.1815L25.2732 37.4705L25.8709 36.765L26.476 36.0653L27.0884 35.3712L27.7081 34.683L28.3349 34.0006L28.969 33.3243L29.6101 32.6539L30.2583 31.9896L30.9134 31.3316L31.5755 30.6797L32.2444 30.0342L32.9202 29.3951L33.6026 28.7625L34.2918 28.1364L34.9876 27.5169L35.6899 26.9041L36.3987 26.2981L37.114 25.6988L37.8356 25.1065L38.5634 24.5211L39.2976 23.9427L40.0379 23.3714L40.7842 22.8073L41.5366 22.2504L42.295 21.7008L43.0592 21.1585L43.8292 20.6236L44.605 20.0961L45.3864 19.5763L46.1735 19.064L46.966 18.5593L47.764 18.0624L48.5674 17.5732L49.376 17.0918L50.1899 16.6184L51.0089 16.1529L51.833 15.6953L52.662 15.2458L53.496 14.8045L54.3348 14.3712L55.1784 13.9462L56.0266 13.5295L56.8794 13.121L57.7367 12.7209L58.5984 12.3293L59.4645 11.946L60.3348 11.5713L61.2093 11.2052L62.0879 10.8476L62.9705 10.4987L63.8571 10.1585L64.7474 9.827L65.6415 9.50428L66.5393 9.19038L67.4406 8.88535L68.3455 8.5892L69.2537 8.302L70.1652 8.02377L71.08 7.75456L71.9979 7.49439L72.9188 7.24332L73.8427 7.00136L74.7695 6.76855L75.699 6.54494L76.6312 6.33054L77.5661 6.1254L78.5034 5.92954L79.4431 5.74298L80.3851 5.56577L81.3294 5.39793L82.2757 5.23948L83.2241 5.09044L84.1745 4.95086L85.1267 4.82074L86.0806 4.70011L87.0363 4.589L87.9934 4.48742L88.9521 4.3954L89.9121 4.31295L90.8734 4.24009L91.8358 4.17684L92.7994 4.12322L93.7639 4.07924L94.7293 4.04491L95.6956 4.02026L96.6625 4.00528L97.63 4L98.598 4.00442L99.5665 4.01856L100.535 4.04241L101.504 4.076L102.473 4.11932L103.442 4.17238L104.411 4.23519L105.38 4.30774L106.349 4.39005L107.317 4.48212L108.285 4.58394L109.252 4.69551L110.218 4.81684L111.184 4.94791L112.149 5.08874L113.112 5.23931L114.075 5.39961L115.037 5.56965L115.997 5.74941L116.956 5.93889L117.914 6.13807L118.87 6.34696L119.824 6.56552L120.777 6.79376L121.727 7.03166L122.676 7.27921L123.623 7.53639L124.567 7.80318L125.51 8.07957L126.45 8.36553L127.387 8.66106L128.322 8.96613L129.254 9.28071L130.184 9.60479L131.111 9.93835L132.035 10.2813L132.956 10.6338L133.874 10.9956L134.788 11.3668L135.699 11.7473L136.607 12.1372L137.511 12.5363L138.412 12.9447L139.309 13.3623L140.203 13.7891L141.092 14.2251L141.977 14.6701L142.859 15.1243L143.736 15.5875L144.609 16.0597L145.478 16.5409L146.342 17.031L147.202 17.53L148.057 18.0378L148.907 18.5545L149.753 19.0799L150.593 19.614L151.429 20.1568L152.26 20.7083L153.085 21.2683L153.905 21.8368L154.72 22.4138L155.53 22.9993L156.334 23.5931L157.132 24.1953L157.925 24.8057L158.711 25.4244L159.493 26.0513L160.268 26.6862L161.037 27.3292L161.8 27.9803L162.557 28.6392L163.307 29.3061L164.051 29.9807L164.789 30.6632L165.52 31.3533L166.245 32.0511L166.963 32.7565L167.674 33.4694L168.379 34.1897L169.076 34.9174L169.766 35.6524L170.45 36.3947L171.126 37.1442L171.795 37.9008L172.457 38.6644L173.111 39.435L173.758 40.2125L174.398 40.9969L175.03 41.788L175.654 42.5858L176.27 43.3902L176.879 44.2012L177.48 45.0186L178.073 45.8424L178.658 46.6725L179.235 47.5088L179.803 48.3513L180.364 49.1999L180.916 50.0545L181.46 50.9149L181.995 51.7813L182.523 52.6533L183.041 53.5311L183.551 54.4144L184.052 55.3032L184.545 56.1975L185.029 57.097L185.504 58.0019L185.97 58.9118L186.428 59.8269L186.876 60.7469L187.315 61.6719L187.745 62.6017L188.167 63.5361L188.578 64.4752L188.981 65.4189L189.374 66.367L189.758 67.3194L190.133 68.2762L190.498 69.2371L190.854 70.202L191.2 71.171L191.537 72.1439L191.864 73.1205L192.181 74.1009L192.489 75.0849L192.787 76.0723L193.075 77.0632L193.354 78.0575L193.622 79.0549L193.881 80.0555L194.129 81.0591L194.368 82.0656L194.597 83.075L194.816 84.087L195.024 85.1017L195.223 86.119L195.412 87.1387L195.59 88.1607L195.758 89.1849L195.916 90.2113L196.064 91.2397L196.201 92.27L196.329 93.3021L196.446 94.336L196.552 95.3714L196.648 96.4084L196.734 97.4468L196.81 98.4865L196.875 99.5274L165.462 99.8595Z" fill="#7CDE9A" stroke="#303030" stroke-width="8"/>
</svg>
